<svg xmlns="http://www.w3.org/2000/svg" version="1.1" xmlns:xlink="http://www.w3.org/1999/xlink"
    xmlns:svgjs="http://svgjs.com/svgjs" width="512" height="512" x="0" y="0" viewBox="0 0 511.992 511.992"
    style="enable-background:new 0 0 512 512" xml:space="preserve" class="">
    <g>
        <path fill="#ffffff"
            d="m415.402 495.422-159.406-159.41L96.59 495.422c-22.098 22.094-57.922 22.094-80.02 0-22.093-22.098-22.093-57.922 0-80.02l159.41-159.406L16.57 96.59c-22.093-22.098-22.093-57.922 0-80.02 22.098-22.093 57.922-22.093 80.02 0l159.406 159.41L415.402 16.57c22.098-22.093 57.922-22.093 80.02 0 22.094 22.098 22.094 57.922 0 80.02l-159.41 159.406 159.41 159.406c22.094 22.098 22.094 57.922 0 80.02-22.098 22.094-57.922 22.094-80.02 0zm0 0"
            data-original="#e76e54" class=""></path>
    </g>
</svg>